<?xml version="1.0" encoding="UTF-8"?>
<!--Generator: Apple Native CoreSVG 341-->
<!DOCTYPE svg
PUBLIC "-//W3C//DTD SVG 1.1//EN"
       "http://www.w3.org/Graphics/SVG/1.1/DTD/svg11.dtd">
<svg version="1.1" xmlns="http://www.w3.org/2000/svg" xmlns:xlink="http://www.w3.org/1999/xlink" viewBox="0 0 238.308 199.316">
 <g>
  <rect height="199.316" opacity="0" width="238.308" x="0" y="0"/>
  <path d="M231.361 83.3984L186.537 83.3984C179.603 83.3984 177.845 88.0859 181.556 93.457L203.431 124.609C206.556 129.102 211.244 129.199 214.466 124.609L236.341 93.5547C240.15 88.0859 238.294 83.3984 231.361 83.3984ZM119.154 16.6016C165.052 16.6016 202.162 53.7109 202.162 99.6094C202.162 104.102 205.873 107.812 210.56 107.812C215.052 107.812 218.666 104.199 218.763 99.707C218.666 44.5312 174.134 0 119.154 0C89.8569 0 63.2944 12.6953 45.0327 33.1055C41.0288 37.5 42.396 43.2617 46.1069 45.8008C49.2319 48.1445 53.4311 48.3398 57.5327 43.9453C72.7671 27.0508 94.7397 16.6016 119.154 16.6016ZM6.94677 115.82L51.771 115.82C58.7046 115.82 60.4624 111.035 56.7515 105.762L34.8765 74.5117C31.7515 70.1172 27.064 70.0195 23.8413 74.5117L1.9663 105.664C-1.84229 111.035-0.0844799 115.82 6.94677 115.82ZM119.154 182.617C73.2554 182.617 36.146 145.508 36.146 99.6094C36.146 95.1172 32.3374 91.3086 27.7476 91.3086C23.2554 91.3086 19.6421 95.0195 19.5444 99.5117C19.6421 154.688 64.1733 199.219 119.154 199.219C148.451 199.219 175.013 186.523 193.275 166.113C197.279 161.621 195.912 155.957 192.201 153.32C189.076 151.074 184.876 150.879 180.775 155.176C165.541 172.07 143.568 182.617 119.154 182.617Z" fill="white" fill-opacity="0.85"/>
 </g>
</svg>
