<?xml version="1.0" encoding="UTF-8"?>
<!--Generator: Apple Native CoreSVG 341-->
<!DOCTYPE svg
PUBLIC "-//W3C//DTD SVG 1.1//EN"
       "http://www.w3.org/Graphics/SVG/1.1/DTD/svg11.dtd">
<svg version="1.1" xmlns="http://www.w3.org/2000/svg" xmlns:xlink="http://www.w3.org/1999/xlink" viewBox="0 0 129.98 188.184">
 <g>
  <rect height="188.184" opacity="0" width="129.98" x="0" y="0"/>
  <path d="M65.0391 0C62.5 0 60.2539 0.976562 58.3008 2.92969L2.53906 56.4453C1.07422 57.9102 0 59.9609 0 62.793C0 67.8711 3.80859 71.7773 8.88672 71.7773C11.0352 71.7773 13.3789 71.1914 15.4297 69.1406L65.0391 20.6055L114.551 69.1406C116.699 71.0938 118.945 71.7773 121.094 71.7773C126.172 71.7773 129.98 67.8711 129.98 62.793C129.98 59.9609 129.004 57.9102 127.441 56.4453L71.6797 2.92969C69.7266 0.976562 67.4805 0 65.0391 0ZM65.0391 188.086C67.4805 188.086 69.7266 187.012 71.6797 185.156L127.441 131.641C129.004 130.078 129.98 128.125 129.98 125.195C129.98 120.117 126.172 116.309 121.094 116.309C118.945 116.309 116.699 116.992 114.551 118.945L65.0391 167.48L15.4297 118.945C13.3789 116.895 11.0352 116.309 8.88672 116.309C3.80859 116.309 0 120.117 0 125.195C0 128.125 1.07422 130.078 2.53906 131.641L58.3008 185.156C60.2539 187.012 62.5 188.086 65.0391 188.086Z" fill="white" fill-opacity="0.85"/>
 </g>
</svg>
