<?xml version="1.0" encoding="UTF-8"?>
<!--Generator: Apple Native CoreSVG 341-->
<!DOCTYPE svg
PUBLIC "-//W3C//DTD SVG 1.1//EN"
       "http://www.w3.org/Graphics/SVG/1.1/DTD/svg11.dtd">
<svg version="1.1" xmlns="http://www.w3.org/2000/svg" xmlns:xlink="http://www.w3.org/1999/xlink" viewBox="0 0 199.198 199.218">
 <g>
  <rect height="199.218" opacity="0" width="199.198" x="0" y="0"/>
  <path d="M99.5468 199.094C154.553 199.094 199.197 154.553 199.197 99.5469C199.197 44.5409 154.553 0 99.5468 0C44.6443 0 3.55271e-15 44.5409 3.55271e-15 99.5469C3.55271e-15 154.553 44.6443 199.094 99.5468 199.094ZM99.5468 182.559C53.6576 182.559 16.6173 145.436 16.6173 99.5469C16.6173 53.6574 53.6576 16.535 99.5468 16.535C145.436 16.535 182.559 53.6574 182.559 99.5469C182.559 145.436 145.436 182.559 99.5468 182.559ZM166.416 163.922L166.105 162.823C161.24 148.476 135.428 132.75 99.5468 132.75C63.7075 132.75 37.9998 148.455 33.0919 162.76L32.7814 163.922C50.4316 181.306 80.5631 191.445 99.5679 191.445C118.718 191.445 148.618 181.39 166.416 163.922ZM99.5468 116.217C118.342 116.424 133.065 100.371 133.065 79.3752C133.065 59.6257 118.279 43.2808 99.5468 43.2808C80.9187 43.2808 66.0077 59.6257 66.1325 79.3752C66.236 100.371 80.752 116.01 99.5468 116.217Z" fill="white" fill-opacity="0.85"/>
 </g>
</svg>
